<svg width="142" height="356" viewBox="0 0 142 356" fill="none" xmlns="http://www.w3.org/2000/svg">
<path d="M82.9932 135.103H58.7747C49.986 135.103 42.8613 141.886 42.8613 150.252V237.448C42.8613 245.814 49.986 252.597 58.7747 252.597H82.9932C91.7819 252.597 98.9066 245.814 98.9066 237.448V150.252C98.9066 141.886 91.7819 135.103 82.9932 135.103Z" fill="#D5D5D5" stroke="#232323" stroke-width="2" stroke-miterlimit="10"/>
<path d="M90.236 118.33C90.236 118.33 88.3055 121.345 83.838 125.398C80.2016 128.699 74.521 131.733 68.3679 135.031C67.0411 135.742 74.9875 135.4 79.9858 135.295C80.4845 135.284 80.9802 135.322 81.4759 135.378C82.4091 135.483 84.7274 135.289 88.3522 132.066C90.5276 130.131 93.2426 127.846 95.0593 125.528C95.2722 125.259 95.4822 124.99 95.7096 124.729L106.715 112.022L90.2389 118.333L90.236 118.33Z" fill="#3F3F3F" stroke="#232323" stroke-width="2" stroke-miterlimit="10"/>
<path d="M70.9938 118.724L70.8848 279.229" stroke="#232323" stroke-width="2" stroke-miterlimit="10"/>
<path d="M70.8852 120.59C109.482 120.59 140.77 93.8188 140.77 60.795C140.77 27.7711 109.482 1 70.8852 1C32.2887 1 1 27.7711 1 60.795C1 93.8188 32.2887 120.59 70.8852 120.59Z" fill="white" stroke="#232323" stroke-width="2" stroke-miterlimit="10"/>
<path d="M70.8836 152.967L22.4932 199.034" stroke="#232323" stroke-width="2" stroke-miterlimit="10"/>
<path d="M118.523 198.318L70.8848 152.967" stroke="#232323" stroke-width="2" stroke-miterlimit="10"/>
<path d="M70.8853 278.302L32.751 326.468" stroke="#232323" stroke-width="2" stroke-miterlimit="10"/>
<path d="M105.454 331.956L70.3408 278.535" stroke="#232323" stroke-width="2" stroke-miterlimit="10"/>
<path d="M104.912 43.9712H36.861C27.9982 43.9712 20.8135 50.8109 20.8135 59.2482V69.0424C20.8135 77.4796 27.9982 84.3194 36.861 84.3194H104.912C113.775 84.3194 120.959 77.4796 120.959 69.0424V59.2482C120.959 50.8109 113.775 43.9712 104.912 43.9712Z" fill="#E8E8E8" stroke="#232323" stroke-width="2" stroke-miterlimit="10"/>
<path d="M70.8867 100.172C78.9023 100.172 85.4003 93.9862 85.4003 86.3554C85.4003 78.7246 78.9023 72.5386 70.8867 72.5386C62.871 72.5386 56.373 78.7246 56.373 86.3554C56.373 93.9862 62.871 100.172 70.8867 100.172Z" fill="#AFAFAF" stroke="#232323" stroke-width="2" stroke-miterlimit="10"/>
<path d="M61.31 160.39L61.5636 168.115C61.6128 169.616 60.3733 170.872 58.7964 170.919C57.2196 170.966 55.9 169.786 55.8507 168.285L55.5792 160.014C55.5398 158.815 56.5309 157.81 57.7901 157.773L58.3643 157.756C59.9411 157.709 61.2607 158.889 61.31 160.39Z" fill="#020202" stroke="#232323" stroke-width="2" stroke-miterlimit="10"/>
<path d="M85.1859 160.02L85.4395 167.745C85.4888 169.246 84.2493 170.502 82.6724 170.549C81.0955 170.596 79.776 169.416 79.7267 167.914L79.4552 159.643C79.4158 158.444 80.4069 157.44 81.6661 157.402L82.2403 157.385C83.8171 157.338 85.1367 158.518 85.1859 160.02Z" fill="#020202" stroke="#232323" stroke-width="2" stroke-miterlimit="10"/>
<path d="M94.2959 110.993C82.5526 108.078 61.9705 90.6102 63.8398 86.3517C64.9712 83.7754 67.2808 81.9043 69.2026 80.7106C71.1185 79.5224 73.6526 79.8111 75.2215 81.4102C78.4438 84.6915 87.0843 96.9898 94.4242 98.4778C115.383 102.731 122.16 96.0542 124.242 99.5855C126.645 103.664 114.89 109.988 113.225 110.448C110.066 111.323 101.204 112.708 94.2959 110.993Z" fill="#4A4A4A" stroke="#232323" stroke-width="2" stroke-miterlimit="10"/>
<path d="M70.8854 93.7474C74.8779 93.7474 78.1145 90.6663 78.1145 86.8654C78.1145 83.0646 74.8779 79.9834 70.8854 79.9834C66.8928 79.9834 63.6562 83.0646 63.6562 86.8654C63.6562 90.6663 66.8928 93.7474 70.8854 93.7474Z" fill="#7D7D7D" stroke="#232323" stroke-width="2" stroke-miterlimit="10"/>
<path d="M30.4768 323.531L14.1289 342.503C14.1289 342.503 17.0859 342.888 15.9777 347.452C15.9777 347.452 21.151 344.948 20.4394 350.145C20.4394 350.145 25.2423 346.733 26.0413 349.854L37.6621 326.479C37.9887 325.824 38.1521 325.121 38.1141 324.458C38.0267 322.931 35.7871 320.632 33.4512 321.59C32.3635 322.037 31.2904 322.581 30.4739 323.531H30.4768Z" fill="black"/>
<path d="M109.016 329.366L125.364 348.338C125.364 348.338 122.407 348.724 123.515 353.288C123.515 353.288 118.342 350.784 119.053 355.981C119.053 355.981 114.25 352.569 113.451 355.689L101.83 332.314C101.504 331.659 101.341 330.957 101.378 330.293C101.466 328.766 103.706 326.468 106.041 327.425C107.129 327.872 108.202 328.417 109.019 329.366H109.016Z" fill="black"/>
<path d="M105.751 50.1076C105.089 48.7917 105.806 47.1149 106.92 47.3842C109.361 47.9755 112.963 49.8133 115.421 55.3545C118.675 62.6862 114.345 63.6412 112.866 62.9694C112.56 62.8306 112.047 62.6224 111.799 62.1282L105.751 50.1076Z" fill="#FAFAFA"/>
<path d="M104.257 57.708C103.916 56.4254 104.802 55.637 105.56 56.542C105.992 57.0556 106.476 57.8024 106.992 58.8823C108.342 61.7001 106.607 60.7784 105.502 60.0177C105.015 59.6818 104.613 59.0461 104.417 58.316L104.257 57.708Z" fill="#FAFAFA"/>
</svg>
